# xmcd
#
# Track frame offsets:
#	150
#	9651
#	20713
#	33994
#	46352
#	60691
#	72223
#	82407
#	92790
#	105851
#	117315
#	129158
#	140652
#	152664
#	167605
#	181366
#	193741
#	204748
#	215347
#
# Disc length: 3086 seconds
#
# Revision: 1
# Processed by: cddbd v1.4PL0 Copyright (c) Steve Scherf et al.
# Submitted via: audiograbber 1.82.02
#
DISCID=0d0c0c13
DTITLE=Johnny Tillotson - All Time Greatest Hits cd2
DYEAR=2003
DGENRE=Oldies
TTITLE0=Why Do I Love You So
TTITLE1=I Can't Help It (If I'm Still In Love With You)
TTITLE2=Earth Angel
TTITLE3=You Can Never Stop Me Loving You
TTITLE4=Funny How Time Slips Away
TTITLE5=True True Happiness
TTITLE6=Worry
TTITLE7=I Rise, I Fall
TTITLE8=Send Me The Pillow You Dream On
TTITLE9=Pledging My Love
TTITLE10=Out Of My Mind
TTITLE11=Judy, Judy, Judy
TTITLE12=Sealed With A Kiss
TTITLE13=Blowin' In The Wind
TTITLE14=Can't Help Falling In Love
TTITLE15=Roses Are Red
TTITLE16=You Don't Know Me
TTITLE17=Venus
TTITLE18=Always On My Mind
EXTD=
EXTT0=
EXTT1=
EXTT2=
EXTT3=
EXTT4=
EXTT5=
EXTT6=
EXTT7=
EXTT8=
EXTT9=
EXTT10=
EXTT11=
EXTT12=
EXTT13=
EXTT14=
EXTT15=
EXTT16=
EXTT17=
EXTT18=
PLAYORDER=
